{"title":"The Hunger Games Catching Fire 2013.TS.XViD - !di0T","uid":9243386,"size":800008546,"categoryP":"video","categoryS":"movies","magnet":"?xt=urn:btih:f6445a041f2fa067224c492a976cd651aca569a9&amp;dn=The+Hunger+Games+Catching+Fire+2013.TS.XViD+-+%21di0T&amp;tr=udp%3A%2F%2Ftracker.openbittorrent.com%3A80&amp;tr=udp%3A%2F%2Fopen.demonii.com%3A1337&amp;tr=udp%3A%2F%2Ftracker.coppersurfer.tk%3A6969&amp;tr=udp%3A%2F%2Fexodus.desync.com%3A6969","seeders":6,"leechers":0,"uploader":"xxxlavalxxx","files":-1,"time":1385324009,"description":" &lt;a href=&quot;\nhttp://www.imdb.com/title/tt1951264/&quot; rel=&quot;nofollow&quot; target=&quot;_NEW&quot;&gt;\nhttp://www.imdb.com/title/tt1951264/&lt;/a&gt;\n\n\nKatniss Everdeen and Peeta Mellark become targets of the Capitol after their victory in the 74th Hunger Games sparks a rebellion in the Districts of Panem.\n\nDirector: Francis Lawrence\nWriters: Simon Beaufoy (screenplay), Michael Arndt (screenplay)\nStars: Jennifer Lawrence, Josh Hutcherson, Liam Hemsworth \nGenres: Action | Adventure | Sci-Fi | Thriller\nCountry: USA\nLanguage: English\n\n\n\nGeneral\nComplete name                            : The Hunger Games Catching Fire 2013.TS.XViD - !di0T.avi\nFormat                                   : AVI\nFormat/Info                              : Audio Video Interleave\nFile size                                : 763 MiB\nDuration                                 : 2h 16mn\nOverall bit rate mode                    : Variable\nOverall bit rate                         : 784 Kbps\nWriting application                      : FairUse Wizard\nWriting library                          : VirtualDub build 35491/release\n\nVideo\nID                                       : 0\nFormat                                   : MPEG-4 Visual\nFormat profile                           : Advanced Simple@L5\nFormat settings, BVOP                    : 2\nFormat settings, QPel                    : No\nFormat settings, GMC                     : No warppoints\nFormat settings, Matrix                  : Default (H.263)\nMuxing mode                              : Packed bitstream\nCodec ID                                 : XVID\nCodec ID/Hint                            : XviD\nDuration                                 : 2h 16mn\nBit rate                                 : 656 Kbps\nWidth                                    : 624 pixels\nHeight                                   : 272 pixels\nDisplay aspect ratio                     : 2.25:1\nFrame rate                               : 29.970 fps\nColor space                              : YUV\nChroma subsampling                       : 4:2:0\nBit depth                                : 8 bits\nScan type                                : Progressive\nCompression mode                         : Lossy\nBits/(Pixel*Frame)                       : 0.129\nStream size                              : 638 MiB (84%)\nWriting library                          : XviD 62\n\nAudio\nID                                       : 1\nFormat                                   : MPEG Audio\nFormat version                           : Version 1\nFormat profile                           : Layer 3\nCodec ID                                 : 55\nCodec ID/Hint                            : MP3\nDuration                                 : 2h 16mn\nBit rate mode                            : Variable\nBit rate                                 : 114 Kbps\nChannel(s)                               : 1 channel\nSampling rate                            : 44.1 KHz\nCompression mode                         : Lossy\nStream size                              : 111 MiB (15%)\nAlignment                                : Aligned on interleaves\nInterleave, duration                     : 26 ms (0.78 video frame)\nInterleave, preload duration             : 528 ms\n\n\n\nscreens\n &lt;a href=&quot;\nhttp://i.imgur.com/UilpdDU.jpg&quot; rel=&quot;nofollow&quot; target=&quot;_NEW&quot;&gt;\nhttp://i.imgur.com/UilpdDU.jpg&lt;/a&gt; &lt;a href=&quot;\nhttp://i.imgur.com/D2Vn0VL.jpg&quot; rel=&quot;nofollow&quot; target=&quot;_NEW&quot;&gt;\nhttp://i.imgur.com/D2Vn0VL.jpg&lt;/a&gt; &lt;a href=&quot;\nhttp://i.imgur.com/MwuvoR7.jpg&quot; rel=&quot;nofollow&quot; target=&quot;_NEW&quot;&gt;\nhttp://i.imgur.com/MwuvoR7.jpg&lt;/a&gt;","torrent":{"xt":"urn:btih:f6445a041f2fa067224c492a976cd651aca569a9","amp;dn":"The+Hunger+Games+Catching+Fire+2013.TS.XViD+-+%21di0T","amp;tr":["udp%3A%2F%2Ftracker.openbittorrent.com%3A80","udp%3A%2F%2Fopen.demonii.com%3A1337","udp%3A%2F%2Ftracker.coppersurfer.tk%3A6969","udp%3A%2F%2Fexodus.desync.com%3A6969"],"infoHash":"f6445a041f2fa067224c492a976cd651aca569a9","infoHashBuffer":{"type":"Buffer","data":[246,68,90,4,31,47,160,103,34,76,73,42,151,108,214,81,172,165,105,169]},"announce":[],"urlList":[]}}